<svg width="800" height="600" viewBox="0 0 800 600" xmlns="http://www.w3.org/2000/svg">
  <defs>
    <linearGradient id="bg" x1="0%" y1="0%" x2="100%" y2="100%">
      <stop offset="0%" style="stop-color:#f3f4f6;stop-opacity:1" />
      <stop offset="100%" style="stop-color:#e5e7eb;stop-opacity:1" />
    </linearGradient>
  </defs>
  <rect width="800" height="600" fill="url(#bg)"/>
  
  <!-- Factory building outline -->
  <rect x="100" y="200" width="600" height="300" fill="#d1d5db" stroke="#9ca3af" stroke-width="2"/>
  <polygon points="100,200 400,100 700,200" fill="#6b7280" stroke="#4b5563" stroke-width="2"/>
  
  <!-- Windows -->
  <rect x="150" y="250" width="80" height="60" fill="#3b82f6" opacity="0.3"/>
  <rect x="280" y="250" width="80" height="60" fill="#3b82f6" opacity="0.3"/>
  <rect x="440" y="250" width="80" height="60" fill="#3b82f6" opacity="0.3"/>
  <rect x="570" y="250" width="80" height="60" fill="#3b82f6" opacity="0.3"/>
  
  <!-- Smokestacks -->
  <rect x="200" y="80" width="20" height="120" fill="#6b7280"/>
  <rect x="250" y="60" width="20" height="140" fill="#6b7280"/>
  <rect x="300" y="90" width="20" height="110" fill="#6b7280"/>
  
  <!-- Smoke clouds -->
  <circle cx="210" cy="60" r="15" fill="#d1d5db" opacity="0.7"/>
  <circle cx="225" cy="50" r="12" fill="#d1d5db" opacity="0.6"/>
  <circle cx="260" cy="40" r="18" fill="#d1d5db" opacity="0.7"/>
  <circle cx="280" cy="35" r="14" fill="#d1d5db" opacity="0.6"/>
  <circle cx="310" cy="70" r="16" fill="#d1d5db" opacity="0.7"/>
  
  <!-- Production lines (conveyor belts) -->
  <rect x="120" y="380" width="560" height="15" fill="#374151"/>
  <rect x="120" y="420" width="560" height="15" fill="#374151"/>
  <rect x="120" y="460" width="560" height="15" fill="#374151"/>
  
  <!-- Machinery/equipment boxes -->
  <rect x="150" y="350" width="40" height="40" fill="#4b5563"/>
  <rect x="220" y="350" width="40" height="40" fill="#4b5563"/>
  <rect x="290" y="350" width="40" height="40" fill="#4b5563"/>
  <rect x="360" y="350" width="40" height="40" fill="#4b5563"/>
  <rect x="430" y="350" width="40" height="40" fill="#4b5563"/>
  <rect x="500" y="350" width="40" height="40" fill="#4b5563"/>
  <rect x="570" y="350" width="40" height="40" fill="#4b5563"/>
  
  <!-- Title -->
  <text x="400" y="550" text-anchor="middle" font-family="Arial, sans-serif" font-size="24" font-weight="bold" fill="#374151">制造业项目管理案例</text>
  <text x="400" y="580" text-anchor="middle" font-family="Arial, sans-serif" font-size="16" fill="#6b7280">现代化生产线与工业设备</text>
</svg>