<svg width="128" height="128" viewBox="0 0 128 128" fill="none" xmlns="http://www.w3.org/2000/svg">
  <!-- 背景 -->
  <rect width="128" height="128" fill="#f8fafc" stroke="#e2e8f0" stroke-width="2" rx="8"/>
  
  <!-- 二维码图案 -->
  <g fill="#1e293b">
    <!-- 左上角定位点 -->
    <rect x="8" y="8" width="24" height="24" fill="#1e293b"/>
    <rect x="12" y="12" width="16" height="16" fill="#f8fafc"/>
    <rect x="16" y="16" width="8" height="8" fill="#1e293b"/>
    
    <!-- 右上角定位点 -->
    <rect x="96" y="8" width="24" height="24" fill="#1e293b"/>
    <rect x="100" y="12" width="16" height="16" fill="#f8fafc"/>
    <rect x="104" y="16" width="8" height="8" fill="#1e293b"/>
    
    <!-- 左下角定位点 -->
    <rect x="8" y="96" width="24" height="24" fill="#1e293b"/>
    <rect x="12" y="100" width="16" height="16" fill="#f8fafc"/>
    <rect x="16" y="104" width="8" height="8" fill="#1e293b"/>
    
    <!-- 数据点 -->
    <rect x="40" y="8" width="4" height="4"/>
    <rect x="48" y="8" width="4" height="4"/>
    <rect x="56" y="8" width="4" height="4"/>
    <rect x="72" y="8" width="4" height="4"/>
    <rect x="80" y="8" width="4" height="4"/>
    
    <rect x="8" y="40" width="4" height="4"/>
    <rect x="40" y="40" width="4" height="4"/>
    <rect x="48" y="40" width="4" height="4"/>
    <rect x="64" y="40" width="4" height="4"/>
    <rect x="72" y="40" width="4" height="4"/>
    <rect x="88" y="40" width="4" height="4"/>
    <rect x="96" y="40" width="4" height="4"/>
    <rect x="104" y="40" width="4" height="4"/>
    <rect x="112" y="40" width="4" height="4"/>
    <rect x="120" y="40" width="4" height="4"/>
    
    <rect x="40" y="48" width="4" height="4"/>
    <rect x="56" y="48" width="4" height="4"/>
    <rect x="72" y="48" width="4" height="4"/>
    <rect x="88" y="48" width="4" height="4"/>
    <rect x="104" y="48" width="4" height="4"/>
    <rect x="120" y="48" width="4" height="4"/>
    
    <rect x="8" y="56" width="4" height="4"/>
    <rect x="24" y="56" width="4" height="4"/>
    <rect x="40" y="56" width="4" height="4"/>
    <rect x="56" y="56" width="4" height="4"/>
    <rect x="64" y="56" width="4" height="4"/>
    <rect x="80" y="56" width="4" height="4"/>
    <rect x="96" y="56" width="4" height="4"/>
    <rect x="112" y="56" width="4" height="4"/>
    
    <rect x="16" y="64" width="4" height="4"/>
    <rect x="32" y="64" width="4" height="4"/>
    <rect x="48" y="64" width="4" height="4"/>
    <rect x="72" y="64" width="4" height="4"/>
    <rect x="88" y="64" width="4" height="4"/>
    <rect x="104" y="64" width="4" height="4"/>
    <rect x="120" y="64" width="4" height="4"/>
    
    <rect x="8" y="72" width="4" height="4"/>
    <rect x="24" y="72" width="4" height="4"/>
    <rect x="48" y="72" width="4" height="4"/>
    <rect x="64" y="72" width="4" height="4"/>
    <rect x="80" y="72" width="4" height="4"/>
    <rect x="96" y="72" width="4" height="4"/>
    <rect x="112" y="72" width="4" height="4"/>
    
    <rect x="40" y="80" width="4" height="4"/>
    <rect x="56" y="80" width="4" height="4"/>
    <rect x="72" y="80" width="4" height="4"/>
    <rect x="88" y="80" width="4" height="4"/>
    <rect x="104" y="80" width="4" height="4"/>
    <rect x="120" y="80" width="4" height="4"/>
    
    <rect x="40" y="88" width="4" height="4"/>
    <rect x="48" y="88" width="4" height="4"/>
    <rect x="64" y="88" width="4" height="4"/>
    <rect x="80" y="88" width="4" height="4"/>
    <rect x="96" y="88" width="4" height="4"/>
    <rect x="112" y="88" width="4" height="4"/>
    
    <rect x="40" y="112" width="4" height="4"/>
    <rect x="48" y="112" width="4" height="4"/>
    <rect x="56" y="112" width="4" height="4"/>
    <rect x="72" y="112" width="4" height="4"/>
    <rect x="80" y="112" width="4" height="4"/>
    <rect x="88" y="112" width="4" height="4"/>
    <rect x="104" y="112" width="4" height="4"/>
    <rect x="120" y="112" width="4" height="4"/>
    
    <rect x="40" y="120" width="4" height="4"/>
    <rect x="56" y="120" width="4" height="4"/>
    <rect x="72" y="120" width="4" height="4"/>
    <rect x="88" y="120" width="4" height="4"/>
    <rect x="104" y="120" width="4" height="4"/>
  </g>
  
  <!-- 微信图标 -->
  <g transform="translate(48, 48)">
    <circle cx="16" cy="16" r="14" fill="#07c160" opacity="0.8"/>
    <path d="M10 12c0-1.1.9-2 2-2s2 .9 2 2-.9 2-2 2-2-.9-2-2zm8 0c0-1.1.9-2 2-2s2 .9 2 2-.9 2-2 2-2-.9-2-2zm-6 8c0-.6.4-1 1-1h6c.6 0 1 .4 1 1s-.4 1-1 1h-6c-.6 0-1-.4-1-1z" fill="white"/>
  </g>
  
  <!-- 文字标识 -->
  <text x="64" y="140" text-anchor="middle" font-family="Arial, sans-serif" font-size="10" fill="#64748b">微信二维码</text>
</svg>